<?xml version="1.0" encoding="iso-8859-1"?>
<!-- Generator: Adobe Illustrator 19.0.0, SVG Export Plug-In . SVG Version: 6.00 Build 0)  -->
<svg version="1.1" id="Capa_1" xmlns="http://www.w3.org/2000/svg" xmlns:xlink="http://www.w3.org/1999/xlink" x="0px" y="0px"
	 viewBox="0 0 512 512" style="enable-background:new 0 0 512 512;" xml:space="preserve">
<path style="fill:#AFF0F5;" d="M512,256c0,141.385-114.615,256-256,256S0,397.385,0,256S114.615,0,256,0S512,114.615,512,256z"/>
<path style="fill:#323750;" d="M0.076,250h511.848c0.046,1.995,0.076,3.994,0.076,6c0,141.385-114.615,256-256,256S0,397.385,0,256
	C0,253.994,0.03,251.995,0.076,250z"/>
<path style="fill:#D9593F;" d="M120.086,320l215.858-215.858c7.811-7.81,20.474-7.81,28.284,0l147.719,147.719
	C511.969,253.24,512,254.616,512,256c0,22.099-2.801,43.544-8.065,64H120.086z"/>
<path style="fill:#AA321E;" d="M335,160h-20c-2.761,0-5-2.239-5-5s2.239-5,5-5h20c2.761,0,5,2.239,5,5S337.761,160,335,160z
	 M345,165h-10c-2.761,0-5,2.239-5,5s2.239,5,5,5h10c2.761,0,5-2.239,5-5S347.761,165,345,165z M305,245h-10c-2.761,0-5,2.239-5,5
	s2.239,5,5,5h10c2.761,0,5-2.239,5-5S307.761,245,305,245z M300,230c0-2.761-2.239-5-5-5h-10c-2.761,0-5,2.239-5,5s2.239,5,5,5h10
	C297.761,235,300,232.761,300,230z M415,210h10c2.761,0,5-2.239,5-5s-2.239-5-5-5h-10c-2.761,0-5,2.239-5,5S412.239,210,415,210z
	 M405,220h-10c-2.761,0-5,2.239-5,5s2.239,5,5,5h10c2.761,0,5-2.239,5-5S407.761,220,405,220z M425,230h-10c-2.761,0-5,2.239-5,5
	s2.239,5,5,5h10c2.761,0,5-2.239,5-5S427.761,230,425,230z"/>
<path style="fill:#5AC3A5;" d="M155,30c33.911,0,65.29,10.825,90.883,29.201v253.597C220.29,331.175,188.911,342,155,342
	s-65.29-10.825-90.883-29.201V59.201C89.71,40.825,121.089,30,155,30z"/>
<path style="fill:#3CAF96;" d="M91.492,94.749v96.307h113.167c10.068,0,18.229,7.599,18.229,16.972l0,0
	c0,9.373-8.161,16.972-18.229,16.972H101.492c-5.523,0-10,4.477-10,10v75.312H64.117V208.028l0,0V67.776l0,0V51.899h11.834
	c1.992-0.696,4.141-1.095,6.395-1.095h122.312c10.068,0,18.229,7.599,18.229,16.972l0,0c0,9.373-8.161,16.972-18.229,16.972H101.492
	C95.969,84.749,91.492,89.226,91.492,94.749z"/>
<path style="fill:#5AC3A5;" d="M256.832,46.424L256.832,46.424c0,9.071-7.354,16.425-16.425,16.425H69.592
	c-9.071,0-16.425-7.354-16.425-16.425l0,0C53.168,37.354,60.521,30,69.592,30h170.815C249.479,30,256.832,37.354,256.832,46.424z
	 M240.408,169.575H69.592c-9.071,0-16.425,7.354-16.425,16.424l0,0c0,9.071,7.354,16.425,16.425,16.425h170.815
	c9.071,0,16.425-7.354,16.425-16.425l0,0C256.832,176.929,249.479,169.575,240.408,169.575z M240.408,309.151H69.592
	c-9.071,0-16.425,7.354-16.425,16.424l0,0c0,9.071,7.354,16.425,16.425,16.425h170.815c9.071,0,16.425-7.354,16.425-16.425l0,0
	C256.832,316.504,249.479,309.151,240.408,309.151z"/>
<path style="fill:#82D2AF;" d="M256.832,40.95v7.665H102.441c-6.047,0-10.95-4.902-10.95-10.95V30h154.391
	C251.93,30,256.832,34.902,256.832,40.95z M245.883,309.151H91.492v7.665c0,6.047,4.902,10.95,10.95,10.95h154.391v-7.665
	C256.832,314.053,251.93,309.151,245.883,309.151z M245.883,169.575H91.492v7.665c0,6.047,4.902,10.95,10.95,10.95h154.391v-7.665
	C256.832,174.478,251.93,169.575,245.883,169.575z"/>
<path style="fill:#788CAA;" d="M429.631,459.05H176.034c-18.376-25.592-29.201-56.972-29.201-90.883s10.825-65.29,29.201-90.883
	h253.597c18.376,25.592,29.201,56.972,29.201,90.883S448.007,433.458,429.631,459.05z"/>
<path style="fill:#6D7D99;" d="M438.028,440.821c0,2.254-0.399,4.402-1.095,6.395v11.834H178.52v-27.374h75.312
	c5.523,0,10-4.477,10-10V318.509c0-10.068,7.599-18.229,16.972-18.229s16.972,8.161,16.972,18.229v113.167h96.307
	c5.523,0,10-4.477,10-10V318.509c0-10.068,7.599-18.229,16.972-18.229c9.374,0,16.972,8.161,16.972,18.229v122.312H438.028z"/>
<path style="fill:#788CAA;" d="M458.832,282.76v170.815c0,9.071-7.354,16.425-16.425,16.425s-16.425-7.354-16.425-16.425V282.76
	c0-9.071,7.354-16.424,16.425-16.424S458.832,273.689,458.832,282.76z M302.832,266.335c-9.071,0-16.425,7.354-16.425,16.424
	v170.815c0,9.071,7.354,16.425,16.425,16.425s16.425-7.354,16.425-16.425V282.76C319.257,273.689,311.903,266.335,302.832,266.335z
	 M163.257,266.335c-9.071,0-16.425,7.354-16.425,16.424v170.815c0,9.071,7.354,16.425,16.425,16.425s16.425-7.354,16.425-16.425
	V282.76C179.681,273.689,172.328,266.335,163.257,266.335z"/>
<path style="fill:#B4C8E1;" d="M319.257,282.76v148.916h-7.665c-6.047,0-10.95-4.902-10.95-10.95V266.498
	c0.718-0.096,1.446-0.163,2.19-0.163C311.903,266.335,319.257,273.689,319.257,282.76z M442.408,266.335
	c-0.744,0-1.472,0.067-2.19,0.163v154.228c0,6.047,4.902,10.95,10.95,10.95h7.665V282.76
	C458.832,273.689,451.479,266.335,442.408,266.335z M163.257,266.335c-0.744,0-1.472,0.067-2.19,0.163v154.228
	c0,6.047,4.902,10.95,10.95,10.95h7.665V282.76C179.681,273.689,172.328,266.335,163.257,266.335z"/>
<path style="fill:#D2FAE6;" d="M362.285,349.006h96.547v38.324h-96.547c-1.105,0-2-0.895-2-2v-34.324
	C360.285,349.901,361.18,349.006,362.285,349.006z"/>
<path style="fill:#82D2AF;" d="M425.983,349.006v38.324h-21.899v-38.324H425.983z M377.184,357.218h-0.95c-2.761,0-5,2.239-5,5
	v11.899c0,2.761,2.239,5,5,5h0.95c2.761,0,5-2.239,5-5v-11.899C382.184,359.457,379.946,357.218,377.184,357.218z M393.609,357.218
	h-0.95c-2.761,0-5,2.239-5,5v11.899c0,2.761,2.239,5,5,5h0.95c2.761,0,5-2.239,5-5v-11.899
	C398.609,359.457,396.37,357.218,393.609,357.218z"/>
<path style="fill:#FFFF91;" d="M172.162,128.547h-34.324c-1.105,0-2-0.895-2-2V30h38.324v96.547
	C174.162,127.652,173.267,128.547,172.162,128.547z"/>
<path style="fill:#FFEB50;" d="M165.95,95.223v0.95c0,2.761-2.239,5-5,5h-11.9c-2.761,0-5-2.239-5-5v-0.95c0-2.761,2.239-5,5-5
	h11.899C163.711,90.223,165.95,92.462,165.95,95.223z M160.95,106.648h-11.9c-2.761,0-5,2.239-5,5v0.95c0,2.761,2.239,5,5,5h11.899
	c2.761,0,5-2.239,5-5v-0.95C165.95,108.887,163.711,106.648,160.95,106.648z M135.838,62.849v21.899h38.324V62.849H135.838z"/>
<g>
</g>
<g>
</g>
<g>
</g>
<g>
</g>
<g>
</g>
<g>
</g>
<g>
</g>
<g>
</g>
<g>
</g>
<g>
</g>
<g>
</g>
<g>
</g>
<g>
</g>
<g>
</g>
<g>
</g>
</svg>
